<svg width="165" height="30" viewBox="0 0 165 30" fill="none" xmlns="http://www.w3.org/2000/svg">
<path opacity="0.4" d="M28.2523 10.7143V8.57142C28.2523 8.14285 27.9697 7.85713 27.546 7.85713C27.1222 7.85713 26.8396 8.14285 26.8396 8.57142V10.7143C26.8396 11.7143 26.5571 12.7143 25.7096 13.1428L25.5683 4.28571H31.9251C33.0551 4.28571 34.044 5.14285 34.044 6.28571L35.0328 24.2857H26.5571L25.7096 14.7143C27.4047 14.1428 28.2523 12.5714 28.2523 10.7143Z" fill="#F53441"/>
<path opacity="0.4" d="M35.1741 25.7143H26.6984L26.8397 27.8572C26.8397 28.5714 26.5571 29.4286 26.1334 30H33.1964C34.4678 30 35.3153 29 35.3153 27.7143L35.1741 25.7143Z" fill="#F53441"/>
<path fill-rule="evenodd" clip-rule="evenodd" d="M0.141357 22.8571H25.1446L24.0145 2C24.0145 0.857143 23.0257 0 21.8956 0H3.24911C2.11902 0 1.13019 0.857143 1.13019 2L0.141357 22.8571ZM17.6576 4.28572C18.0814 4.28572 18.3639 4.57143 18.3639 5.00001V8.57143C18.3639 11.7143 15.8212 14.2857 12.7134 14.2857C9.60569 14.2857 7.06299 11.7143 7.06299 8.57143V5.00001C7.06299 4.57143 7.34551 4.28572 7.76929 4.28572C8.19308 4.28572 8.4756 4.57143 8.4756 5.00001V8.57143C8.4756 11 10.312 12.8571 12.7134 12.8571C15.1149 12.8571 16.9513 11 16.9513 8.57143V5.00001C16.9513 4.57143 17.2338 4.28572 17.6576 4.28572Z" fill="#F53441"/>
<path d="M0.141261 24.2857L0 27.7143C0 28.2857 0.141261 28.8571 0.565045 29.2857C0.988829 29.7143 1.55387 30 2.11892 30H23.3081C23.8732 30 24.4382 29.7143 24.862 29.2857C25.2858 28.8571 25.427 28.2857 25.427 27.7143L25.2858 24.2857H0.141261Z" fill="#F53441"/>
<path d="M53.7189 12.92C53.7189 14.0933 53.4101 15.0914 52.7923 15.9143C52.1745 16.7219 51.1875 17.1257 49.8314 17.1257C48.4753 17.1257 47.4733 16.7371 46.8254 15.96C46.1775 15.1828 45.8535 14.2457 45.8535 13.1486C45.8535 11.4114 46.6596 10.0476 48.2719 9.05713C49.8842 8.06665 52.4608 7.57142 56.0017 7.57142H58.0359L62.0364 17.4228L66.0369 7.57142H71.5066V10.3143H69.3142V21.1714H71.5066V23.5714H64.7486V21.1714H66.376V13.9486L63.1665 22.2H60.9063L57.6969 13.9486V21.1714H59.3242V23.5714H52.5663V21.1714H54.7586V10.3371C52.4984 10.3981 50.9163 10.6495 50.0122 11.0914C49.1232 11.5181 48.6787 12.1733 48.6787 13.0571C48.6787 13.9409 49.063 14.3828 49.8314 14.3828C50.5396 14.3828 50.8937 13.8952 50.8937 12.92H53.7189Z" fill="black"/>
<path d="M79.8772 22.0857C78.943 23.2286 77.9033 23.8 76.7581 23.8C75.613 23.8 74.7164 23.5028 74.0685 22.9086C73.4206 22.3143 73.0966 21.4838 73.0966 20.4171C73.0966 19.3352 73.5185 18.4209 74.3623 17.6743C75.2061 16.9276 76.4492 16.5543 78.0916 16.5543H79.8772V15.7314C79.8772 15.0152 79.4327 14.6571 78.5437 14.6571C77.6547 14.6571 76.8636 14.7562 76.1705 14.9543V16.2571H73.5713V12.8514C74.3096 12.5619 75.1685 12.3333 76.1479 12.1657C77.1424 11.9981 77.9711 11.9143 78.6341 11.9143C79.945 11.9143 80.9696 12.2647 81.7079 12.9657C82.4462 13.6514 82.8154 14.5733 82.8154 15.7314V21.1714H84.6688V23.16C84.0208 23.5105 83.2072 23.6857 82.2278 23.6857C80.6607 23.6857 79.8772 23.1524 79.8772 22.0857ZM76.9615 21.0571C78.0012 21.0571 78.9731 20.4324 79.8772 19.1828V19.0914H78.069C77.3759 19.0914 76.8636 19.2133 76.5321 19.4571C76.2006 19.7009 76.0349 20.0286 76.0349 20.44C76.0349 20.8514 76.3438 21.0571 76.9615 21.0571Z" fill="black"/>
<path d="M86.268 14.6571V12.1428H90.9466V23C90.9466 24.7219 90.487 26.1009 89.5679 27.1371C88.6638 28.1886 87.2324 28.7143 85.2735 28.7143V25.9943C86.2228 25.9943 86.9159 25.7428 87.3529 25.24C87.7899 24.7524 88.0084 24.0057 88.0084 23V14.6571H86.268ZM89.4775 11.0228C89.0104 11.0228 88.6261 10.8552 88.3248 10.52C88.0385 10.1847 87.8953 9.78094 87.8953 9.30856C87.8953 8.83618 88.0536 8.43237 88.37 8.09713C88.6864 7.74665 89.0782 7.57142 89.5453 7.57142C90.0274 7.57142 90.4117 7.73903 90.698 8.07427C90.9843 8.40951 91.1274 8.81332 91.1274 9.2857C91.1274 9.75808 90.9692 10.1695 90.6528 10.52C90.3363 10.8552 89.9446 11.0228 89.4775 11.0228Z" fill="black"/>
<path d="M100.558 22.0857C99.6236 23.2286 98.5839 23.8 97.4388 23.8C96.2936 23.8 95.3971 23.5028 94.7492 22.9086C94.1012 22.3143 93.7773 21.4838 93.7773 20.4171C93.7773 19.3352 94.1992 18.4209 95.043 17.6743C95.8868 16.9276 97.1299 16.5543 98.7723 16.5543H100.558V15.7314C100.558 15.0152 100.113 14.6571 99.2243 14.6571C98.3353 14.6571 97.5443 14.7562 96.8511 14.9543V16.2571H94.2519V12.8514C94.9903 12.5619 95.8491 12.3333 96.8285 12.1657C97.823 11.9981 98.6517 11.9143 99.3147 11.9143C100.626 11.9143 101.65 12.2647 102.389 12.9657C103.127 13.6514 103.496 14.5733 103.496 15.7314V21.1714H105.349V23.16C104.701 23.5105 103.888 23.6857 102.908 23.6857C101.341 23.6857 100.558 23.1524 100.558 22.0857ZM97.6422 21.0571C98.6819 21.0571 99.6538 20.4324 100.558 19.1828V19.0914H98.7497C98.0566 19.0914 97.5443 19.2133 97.2128 19.4571C96.8813 19.7009 96.7155 20.0286 96.7155 20.44C96.7155 20.8514 97.0244 21.0571 97.6422 21.0571Z" fill="black"/>
<path d="M108.327 26.0171V14.5886H106.474V12.1428H110.565L110.927 13.4457C111.68 12.4552 112.682 11.96 113.933 11.96C115.47 11.96 116.652 12.5162 117.481 13.6286C118.31 14.7257 118.724 16.1428 118.724 17.88C118.724 19.6019 118.242 21.0267 117.278 22.1543C116.328 23.2819 114.957 23.8457 113.164 23.8457C112.652 23.8457 112.019 23.8 111.266 23.7086V25.9714H112.667V28.4857H106.587V26.0171H108.327ZM115.786 17.9714C115.786 17.0114 115.59 16.2267 115.198 15.6171C114.822 15.0076 114.294 14.7028 113.616 14.7028C112.938 14.7028 112.373 15.0609 111.921 15.7771C111.484 16.4933 111.266 17.3543 111.266 18.36V20.7143C111.853 20.9733 112.433 21.1028 113.006 21.1028C113.85 21.1028 114.52 20.8209 115.018 20.2571C115.53 19.6781 115.786 18.9162 115.786 17.9714Z" fill="black"/>
<path d="M127.419 22.0857C126.484 23.2286 125.445 23.8 124.3 23.8C123.154 23.8 122.258 23.5028 121.61 22.9086C120.962 22.3143 120.638 21.4838 120.638 20.4171C120.638 19.3352 121.06 18.4209 121.904 17.6743C122.748 16.9276 123.991 16.5543 125.633 16.5543H127.419V15.7314C127.419 15.0152 126.974 14.6571 126.085 14.6571C125.196 14.6571 124.405 14.7562 123.712 14.9543V16.2571H121.113V12.8514C121.851 12.5619 122.71 12.3333 123.689 12.1657C124.684 11.9981 125.513 11.9143 126.176 11.9143C127.486 11.9143 128.511 12.2647 129.249 12.9657C129.988 13.6514 130.357 14.5733 130.357 15.7314V21.1714H132.21V23.16C131.562 23.5105 130.749 23.6857 129.769 23.6857C128.202 23.6857 127.419 23.1524 127.419 22.0857ZM124.503 21.0571C125.543 21.0571 126.515 20.4324 127.419 19.1828V19.0914H125.611C124.917 19.0914 124.405 19.2133 124.074 19.4571C123.742 19.7009 123.576 20.0286 123.576 20.44C123.576 20.8514 123.885 21.0571 124.503 21.0571Z" fill="black"/>
<path d="M138.013 21.0571H139.98V23.5714H133.335V21.0571H135.075V8.94284H133.335V6.42856H138.013V12.92C139.309 12.2495 140.477 11.9143 141.517 11.9143C142.933 11.9143 143.913 12.3333 144.455 13.1714C144.997 14.0095 145.269 15.1676 145.269 16.6457V21.1714H147.122V23.16C146.474 23.5105 145.691 23.6857 144.771 23.6857C143.852 23.6857 143.212 23.48 142.85 23.0686C142.504 22.6571 142.33 21.9867 142.33 21.0571V16.6457C142.33 15.9752 142.24 15.48 142.059 15.16C141.878 14.8247 141.456 14.6571 140.793 14.6571C140.13 14.6571 139.204 15.1143 138.013 16.0286V21.0571Z" fill="black"/>
<path d="M148.719 14.6571V12.1428H153.397V21.0571H155.364V23.5714H148.696V21.0571H150.459V14.6571H148.719ZM151.928 11.0228C151.461 11.0228 151.077 10.8552 150.776 10.52C150.489 10.1847 150.346 9.78094 150.346 9.30856C150.346 8.83618 150.504 8.43237 150.821 8.09713C151.137 7.74665 151.529 7.57142 151.996 7.57142C152.478 7.57142 152.862 7.73903 153.149 8.07427C153.435 8.40951 153.578 8.81332 153.578 9.2857C153.578 9.75808 153.42 10.1695 153.103 10.52C152.787 10.8552 152.395 11.0228 151.928 11.0228Z" fill="black"/>
<path d="M156.841 14.6571V12.3714L158.807 12.1428C159.304 10.8781 159.628 9.87237 159.779 9.1257H161.745V12.1428H164.435V14.6571H161.745V20.3028C161.745 20.5619 161.783 20.76 161.858 20.8971C161.949 21.019 162.137 21.08 162.423 21.08C162.71 21.08 163.207 20.9352 163.915 20.6457L165 22.9771C164.036 23.5257 163.003 23.8 161.904 23.8C160.819 23.8 160.028 23.5105 159.53 22.9314C159.048 22.3524 158.807 21.5981 158.807 20.6686V14.6571H156.841Z" fill="black"/>
</svg>
